<svg xmlns="http://www.w3.org/2000/svg" xmlns:xlink="http://www.w3.org/1999/xlink" version="1.1" x="0px" y="0px" viewBox="0 0 100 100" style="enable-background:new 0 0 100 100;" xml:space="preserve"><path d="M52.6601562,36.3813477c1.4477539,0.7983398,2.347168,2.3173828,2.347168,3.9648438v2.046875c0,0.5522461,0.4477539,1,1,1  s1-0.4477539,1-1v-2.046875c0-2.3759766-1.2958984-4.565918-3.3813477-5.7158203  c-0.484375-0.2675781-1.0917969-0.090332-1.3583984,0.3925781C52.0004883,35.5068359,52.1767578,36.1147461,52.6601562,36.3813477z"/><path d="M50,10c-22.0561523,0-40,17.9438477-40,40s17.9438477,40,40,40s40-17.9438477,40-40S72.0561523,10,50,10z M12,50  c0-10.1176147,3.9824219-19.3170166,10.4523315-26.133606l16.1765747,16.1765747v35.984375  c0,1.625,1.3222656,2.9472656,2.9472656,2.9472656h16.8476562c1.625,0,2.9472656-1.3222656,2.9472656-2.9472656V62.7851562  L76.133606,77.5476685C69.3170166,84.0175781,60.1176147,88,50,88C29.046875,88,12,70.953125,12,50z M53.9233398,24.8393555  c0,0.0488281-0.0395508,0.0883789-0.0878906,0.0883789h-7.6708984c-0.0483398,0-0.0878906-0.0395508-0.0878906-0.0883789v-4.0444336  c0-0.0488281,0.0395508-0.0883789,0.0878906-0.0883789h7.6708984c0.0483398,0,0.0878906,0.0395508,0.0878906,0.0883789V24.8393555z   M47.7250977,28.0166016v-1.0888672h4.7607422v1.4287109c0,2.3652344,0.8325195,2.9643555,2.1025391,3.6083984  c0.5170898,0.262207,1.1030273,0.559082,1.7851562,1.1914062c1.9331055,1.7915039,2.9975586,4.2270508,2.9975586,6.8579102  v7.6401367H49.0683594l-8.3988647-8.3988647c0.1954956-2.3914185,1.2980957-4.6342163,3.1088257-6.241272  c0.6855469-0.6083984,1.2695312-0.9243164,1.784668-1.203125C46.9082031,31.0825195,47.7250977,30.4638672,47.7250977,28.0166016z   M40.6289062,66.5581055h18.7421875v9.4692383c0,0.5224609-0.4248047,0.9472656-0.9472656,0.9472656H41.5761719  c-0.5224609,0-0.9472656-0.4248047-0.9472656-0.9472656V66.5581055z M59.3710938,64.5581055H40.6289062V49.6542969h7.6113281  l11.1308594,11.1308594V64.5581055z M51.0683594,49.6542969h8.3027344v8.3027344L51.0683594,49.6542969z M46.2402344,47.6542969  h-5.6113281v-5.6113281L46.2402344,47.6542969z M77.5476685,76.133606L61.3710938,59.9570312V40.0141602  c0-3.1479492-1.3261719-6.1821289-3.6381836-8.324707c-0.887207-0.8222656-1.6689453-1.21875-2.2397461-1.5083008  c-0.8730469-0.4428711-1.0073242-0.5107422-1.0073242-1.824707v-1.5428467c0.8317871-0.2752686,1.4375-1.0513306,1.4375-1.9742432  v-4.0444336c0-1.1513672-0.9365234-2.0883789-2.0878906-2.0883789h-7.6708984c-1.1513672,0-2.0878906,0.9370117-2.0878906,2.0883789  v4.0444336c0,1.0004272,0.7077637,1.8371582,1.6484375,2.039856v1.1373901c0,1.4321289-0.1699219,1.5244141-1.1142578,2.0351562  c-0.5493164,0.2973633-1.3017578,0.7045898-2.159668,1.4663086c-1.7906494,1.5890503-3.0126343,3.6911011-3.5343628,5.9846802  l-15.050415-15.050415C30.6829834,15.9824219,39.8823853,12,50,12c20.953125,0,38,17.046875,38,38  C88,60.1176147,84.0175781,69.3170166,77.5476685,76.133606z"/></svg>