<svg xmlns="http://www.w3.org/2000/svg" xmlns:xlink="http://www.w3.org/1999/xlink" version="1.1" x="0px" y="0px" viewBox="0 0 100 100" style="enable-background:new 0 0 100 100;" xml:space="preserve"><metadata><?xpacket begin="&#65279;" id="W5M0MpCehiHzreSzNTczkc9d"?><x:xmpmeta xmlns:x="adobe:ns:meta/" x:xmptk="Adobe XMP Core 5.6-c067 79.157747, 2015/03/30-23:40:42        "/><?xpacket end="w"?></metadata><style type="text/css">
	.st0{fill:#1E1E1C;}
</style><path class="st0" d="M80.5,48c0-1.9,3.3-6.7,5.3-9.6c3.5-5.1,5.6-8.1,4.2-10.8c-0.3-0.6-1.3-2.1-3.7-2.1  c-0.1,0-0.3,0-0.4,0c-7,0.4-14.6,6.8-18.7,12.6c-2.1-2.2-4.8-4.1-8.1-5.5c-3.7-1.7-8-2.7-12-2.9c-0.2-2.8-0.2-6.8,0-9.4  c0.1-1.1-0.3-2.3-1-3.1c-0.8-0.9-1.9-1.3-3-1.3c-0.7,0-1.5,0.2-2.1,0.6c-6.6,4-12,12.5-13.6,17.7c-6.6,2.8-11.6,7-14.7,12.2  c-2.6,4.4-3.8,9.6-3.1,14.2c0,0,0,0.1,0,0.1c0.5,2.6,3.4,3.7,6.1,4.2c-0.4,0.5-0.8,1-1.1,1.4c-0.5,0.6-0.8,1.5-0.7,2.3  s0.6,1.6,1.3,2.1c4.2,2.9,10.6,4.4,19,4.4c0.6,0,1.3,0,1.9,0c0,0,0.1,0.1,0.1,0.1c1.7,2.3,4.1,5.5,6.2,7.8c0.8,0.9,1.9,1.3,3.1,1.3  c2.2,0,4-1.7,4.2-3.9c0.1-1.8,0.2-4.1,0.3-6.3c0-0.4,0-0.8,0.1-1.2c1.8-0.6,3.6-1.5,5-2.2c1,0.9,2.1,1.8,3.1,2.5  c0.6,0.4,1.3,0.6,2,0.6c0.5,0,1-0.1,1.5-0.3c1.5-0.7,2.3-2.2,2.1-3.8c-0.1-0.7-0.3-1.5-0.5-2.3c-0.1-0.7-0.3-1.3-0.4-2  c2.4-2.2,4.3-4.7,5.7-7.8C73.3,63,80.3,67.6,84,67.6c2,0,3.6-1.2,4-3.1c0-0.1,0-0.1,0-0.2c0.6-4-1.9-7.3-4.2-10.2  C82.2,52,80.5,49.8,80.5,48z M85.1,63.9c-0.1,0.5-0.5,0.7-1,0.7c-3.3,0-13.3-7.1-16.2-13.9c-1.4,5.8-3.6,9.9-8,13.4  c0.2,2,0.8,4.3,1.1,5.9c0,0.3-0.1,0.5-0.3,0.6c-0.1,0-0.2,0.1-0.3,0.1c-0.1,0-0.2,0-0.3-0.1c-1.5-1-3.1-2.5-4.3-3.7  c-2,1.1-5.4,2.9-7.9,3.5c-0.2,0-0.3,0.1-0.5,0.1c-0.2,2.9-0.3,6.8-0.5,9.5c-0.1,0.7-0.6,1.1-1.2,1.1c-0.3,0-0.6-0.1-0.9-0.4  c-2.2-2.3-4.9-6-6.9-8.9c0,0-0.1,0-0.1,0c-0.9-1.2-1.7-2.6-2.2-3.5c-0.2-0.4-0.4-0.7-0.5-0.9c-0.4-0.7-1.4-0.9-2.1-0.5  c-0.6,0.4-0.8,1.1-0.6,1.7l-0.6,3.2c-5.9-0.3-11.1-1.4-14.6-3.8c0,0,3.4-4.1,4.3-5.9c-0.3,0-0.7,0-1.1,0c-2.8,0-7.3-0.7-7.6-2.2  c-1-6.7,2.4-18,17.4-23.8c0.5-3.7,5.8-13.2,12.6-17.3c0.2-0.1,0.4-0.2,0.5-0.2c0.6,0,1.1,0.5,1.1,1.2c-0.4,3.6-0.3,10.3,0.3,12.7  c0.4,0,0.9,0,1.3,0c7.2,0,17.6,3.5,21.6,11c2.3-5.9,11.3-14.7,18.6-15.1c0.1,0,0.2,0,0.2,0c5.2,0-8.8,13.5-8.8,19.5  C77.5,53.8,85.9,58.6,85.1,63.9z M23.3,49.3c-1.3,0-2.4,1.1-2.4,2.4c0,1.3,1.1,2.4,2.4,2.4s2.4-1.1,2.4-2.4  C25.7,50.4,24.7,49.3,23.3,49.3z"/></svg>