<svg xmlns="http://www.w3.org/2000/svg" xmlns:xlink="http://www.w3.org/1999/xlink" version="1.1" x="0px" y="0px" viewBox="0 0 100 100" enable-background="new 0 0 100 100" xml:space="preserve"><g><g><g><path fill="#000000" d="M56.1,7.2v2.6H43.9V7.2C43.9,6,44.9,5,46,5h7.9C55.1,5,56.1,6,56.1,7.2z"/><path fill="#000000" d="M61.4,44.2c-1.5-9-4.3-17.5-7.2-25.5l-0.6-2.1v-1.4v0h-7v0v1.4l-0.6,2.1c-3,8-5.8,16.5-7.2,25.5H61.4z      M50,65.8c3.9,0,7.1-2.9,7.7-6.6c0.1-0.4,0.1-0.8,0.1-1.2c0-4.3-3.5-7.8-7.8-7.8c-1.7,0-3.2,0.5-4.5,1.4c-1,0.7-1.8,1.5-2.3,2.6     c-0.6,1.1-1,2.4-1,3.8c0,2.4,1.1,4.5,2.8,6C46.3,65.1,48.1,65.8,50,65.8z M50,92.9c1.5,0,1.8-0.6,2.4-1.8     c0.1-0.2,0.2-0.4,0.3-0.6c0-0.1,0.1-0.1,0.1-0.1c0.1-0.2,0.2-0.3,0.3-0.5v0c0.3-0.3,0.6-0.6,1.1-0.8c0.1,0,0.1,0,0.2-0.1     c0.2-0.1,0.3-0.1,0.5-0.1c0.1,0,0.2,0,0.3,0c0.5,0,1.1,0.2,1.5,0.5c0.4,0.3,0.8,0.6,1.2,0.9c0.4,0.3,0.9,0.7,1.3,1     s0.8,0.5,1.2,0.5c0.5,0,1.7,0,1.9-2.3c0-0.3,0.1-0.7,0.1-1.1V73.8H37.7v14.5c0,0.4,0,0.8,0.1,1.1c0.1,1.2,0.5,1.7,0.9,2     c0.4,0.3,0.8,0.3,1,0.3c0.6,0,1.7-0.8,2.5-1.5c0.4-0.3,0.8-0.6,1.2-0.9c0.5-0.3,1-0.5,1.5-0.5c0.1,0,0.2,0,0.3,0     c0.2,0,0.3,0.1,0.5,0.1c0.1,0,0.1,0,0.2,0.1c0.5,0.2,0.8,0.5,1.1,0.8v0c0.1,0.2,0.2,0.3,0.3,0.5c0,0,0,0.1,0.1,0.1     c0.1,0.2,0.2,0.4,0.3,0.6C48.2,92.3,48.5,92.9,50,92.9L50,92.9L50,92.9z M55.5,91.1c-1.5-1-0.7,3.8-5.4,3.9v0c0,0,0,0,0,0     s0,0,0,0v0c-4.7-0.1-3.9-4.9-5.4-3.9c-1.5,1-3.1,2.8-4.9,2.8c-3.2,0-4.1-2.8-4.1-5.6v-13v-1.6v-0.1v-2.5v-2V53.7     c0-0.8,0.1-1.7,0.1-2.5c0-0.5,0.1-1.1,0.2-1.6c0-0.3,0-0.5,0.1-0.7c0.1-0.7,0.2-1.4,0.3-2.1c0,0,0-0.1,0-0.2     c0.1-0.8,0.2-1.5,0.3-2.3c1.6-10.4,5-19.8,7.9-27.6h0v-3.2c-0.6-0.1-1-0.5-1-1.1v-0.2c0-0.2,0.2-0.3,0.3-0.3h0.2h12.2h0.2     c0.2,0,0.3,0.1,0.3,0.3v0.2c0,0.6-0.5,1.1-1,1.1v3.2c2.9,7.8,6.3,17.2,7.9,27.6c0.1,0.8,0.2,1.5,0.3,2.3c0,0,0,0.1,0,0.2     c0.1,0.7,0.2,1.4,0.2,2.1c0,0.2,0.1,0.5,0.1,0.7c0,0.5,0.1,1.1,0.1,1.6c0.1,0.8,0.1,1.7,0.1,2.5v15.7v2v0.5v2.1v1.6v13     c0,2.8-0.9,5.6-4.1,5.6C58.6,93.9,56.9,92.1,55.5,91.1z"/></g></g></g></svg>