<svg xmlns="http://www.w3.org/2000/svg" xmlns:xlink="http://www.w3.org/1999/xlink" version="1.1" x="0px" y="0px" viewBox="0 0 100 100" enable-background="new 0 0 100 100" xml:space="preserve"><g><path d="M88.2,70.6c-0.2-0.7-0.4-1.6-0.5-1.8c0-0.9-0.2-3-0.6-6.7C86.6,57.4,86,51.5,86,48.6c0-2.4-0.9-4.8-1.9-7.2   c-0.6-1.5-1.1-2.9-1.4-4.3c0,0,0,0,0-0.1c-0.3-1.3-0.4-2.6,0.1-3.6c4.6-12-1.1-19.6-3.6-22.9c0-0.1-0.1-0.1-0.1-0.2   c-0.3-0.7-0.8-1.3-1.3-1.9c-1.8-2.1-5.6-3.1-8.5-3.1c-1.7,0-3.3,0.3-4.7,0.8c-3.4,1.3-3.2,7.3-3,12.6c0,0.9,0,1.8,0,2.5   c0,0.7,0,1.2-0.2,1.6c-1.7,0.1-5.5,0.4-9.3-0.1c-2.9-0.4-5.3-0.3-7.2-0.2c-1.8,0.1-3.2,0.1-4.1-0.2c-1.3-0.5-3-3.7-4.4-6.3   c-2.2-4.1-4.4-8.3-7.9-8.9c-1.6-1-4-1-6.4-1c-1.6,0-3,0.7-4.1,2c-2.4,3-3,9.1-1.5,15.9c0.7,3.3,0.2,7.4-0.3,12.1   c-0.8,6.6-1.7,14.7,0.3,24c2.3,10.2,1.5,13.7,0.7,17c-0.4,1.6-0.8,3.3-0.8,5.7c0,0.1,0,0.2,0,0.3c0.1,0.4,1.8,10.4,9.1,10.4   c2.1,0,4.1-0.3,6.1-0.5c2.2-0.3,4.4-0.6,7.1-0.6c2.3,0,4.6,0.2,7,0.7c1.7,0.3,3.6,0.5,5.7,0.5c6.5,0,13.8-1.4,20.8-2.8   c3.3-0.6,6.3-1.3,9.3-1.7c3-0.5,5.1-1.8,6.5-3.8C91.1,81,89.2,74.3,88.2,70.6z M79.2,20.4c0.2-0.9,0.3-1.8,0.5-2.7   c1.5,3.3,2.3,7.7,0.3,13.4c-0.9-2.1-1.4-4-1.4-6.3C78.6,23.6,78.9,22.1,79.2,20.4z M33.4,17.8c1.9,3.5,3.6,6.8,6.1,7.8   c1.6,0.6,3.4,0.5,5.5,0.4c1.9-0.1,4-0.2,6.6,0.1c1.8,0.2,3.7,0.3,5.3,0.3c0.2,0,0.3,0,0.4,0c-0.3,0.3-0.7,0.6-1,1   c-1.9,1.9-5.3,2.1-8,2.1c-1.1,0-2.1,0-3.1-0.1c-0.9,0-1.8-0.1-2.5-0.1c-3.6,0-4.4-0.5-8.2-4.3c-3.1-3.1-3.8-8.9-3.9-12.2   C31.6,14.3,32.5,16.2,33.4,17.8z M85.4,83.6c-0.8,1.3-2.2,2-4.2,2.3c-3,0.5-6.1,1.1-9.4,1.7c-6.9,1.4-14,2.8-20.2,2.8   c-1.9,0-3.6-0.1-5.1-0.4c-2.7-0.5-5.2-0.7-7.6-0.7c-2.9,0-5.3,0.3-7.5,0.6c-1.9,0.3-3.7,0.5-5.7,0.5c-4.2,0-5.6-6.5-5.8-7.4   c0-1.9,0.3-3.2,0.7-4.8c0.8-3.5,1.7-7.5-0.7-18.5c-1.9-8.7-1.1-16.2-0.3-22.9c0.6-5,1.1-9.4,0.3-13.2c-1.4-6.5-0.6-11.4,0.8-13.1   c0.6-0.7,1.1-0.8,1.5-0.8c5,0,5,0.3,5,1.9c0,3.3,0.5,11.4,4.9,15.9c3.9,3.9,5.5,5.3,10.5,5.3c0.7,0,1.5,0,2.4,0.1   c1,0,2.1,0.1,3.2,0.1c3.4,0,7.7-0.4,10.4-3.1c1.1-1.1,2-1.7,2.8-2.3c0.8-0.6,1.6-1.2,2.2-1.9c0.7-0.9,1.2-2.2,1.2-4.2   c0-0.8,0-1.6,0-2.6c-0.1-2.1-0.1-4.5,0.1-6.5c0.3-2.5,0.8-2.9,0.8-2.9c1-0.4,2.2-0.6,3.4-0.6c3,0,5.6,1.1,6.2,2.2   c0.2,0.3,0.4,0.7,0.8,1.1c0.9,2,0.3,4.9-0.2,7.7c-0.3,1.8-0.7,3.5-0.7,5c0,4.1,1.3,6.9,3,10.6c0.4,0.8,0.8,1.7,1.2,2.6   c0.4,1.5,1,3.1,1.5,4.6c0.8,2.2,1.6,4.3,1.6,6c0,3.1,0.7,9.1,1.2,13.9c0.3,2.9,0.6,5.6,0.6,6.3c0,0.6,0.2,1.3,0.6,2.7   C85.8,74.6,87.4,80.4,85.4,83.6z"/></g></svg>