<svg xmlns="http://www.w3.org/2000/svg" xmlns:xlink="http://www.w3.org/1999/xlink" version="1.1" x="0px" y="0px" viewBox="0 0 100 100" style="enable-background:new 0 0 100 100;" xml:space="preserve"><style type="text/css">
	.st0{fill:none;stroke:#000000;stroke-width:2;stroke-linecap:round;stroke-linejoin:round;stroke-miterlimit:10;}
	.st1{fill:none;stroke:#000000;stroke-width:1.8;stroke-linecap:round;stroke-linejoin:round;stroke-miterlimit:10;}
</style><path fill="#003755" d="M24.7,33c0.1,0,1.1-0.1,3-0.3l0.4,11.4c-1.1,0.1-1.7,0.1-1.7,0.1c-0.5,0.1-0.9,0.5-0.9,1l0.9,26c0,0.5,0.4,0.9,0.8,1  c0.1,0,0.7,0.1,1.8,0.3l0.4,10.5c0,0.5,0.4,0.9,0.9,1c0,0,0.3,0,0.8,0.1l0.5,4.1c0.1,0.4,0.4,0.8,0.8,0.9c0.1,0,7.4,1.3,17.8,1.3  c5.2,0,11.3-0.3,17.6-1.3c0.4-0.1,0.8-0.4,0.8-0.9l0.5-4.1c0.2,0,0.5-0.1,0.7-0.1c0.5-0.1,0.9-0.5,0.9-1L71,72.3  c0.6-0.1,1.2-0.1,1.7-0.2c0.5-0.1,0.9-0.5,0.9-1l0.9-26c0-0.5-0.4-1-0.9-1c-0.6-0.1-1.1-0.1-1.7-0.1l0.4-11.4c1,0.1,2,0.2,3,0.4  c0,0,0.1,0,0.1,0c0.2,0,0.5-0.1,0.7-0.3c0.2-0.2,0.3-0.5,0.3-0.8L76,22.8c0-0.5-0.4-0.9-0.9-0.9c-0.7-0.1-1.5-0.2-2.2-0.3l-1.6-8.4  c-0.1-0.4-0.4-0.7-0.8-0.8c-22.2-4.9-40.9,0-41.1,0c-0.4,0.1-0.6,0.4-0.7,0.8L27,22c-1.4,0.2-2.2,0.4-2.2,0.4  c-0.4,0.1-0.8,0.5-0.8,0.9L23.6,32c0,0.3,0.1,0.6,0.3,0.8C24.1,33,24.4,33.1,24.7,33z M66.6,87.1c-16,2.4-29.9,0.5-33.2,0l-0.3-2.9  c3.3,0.3,9.2,0.8,16.7,0.8c5.1,0,10.9-0.2,17.1-0.8L66.6,87.1z M68.6,82c-18.4,2-33.6,0.5-37.3,0L31,72.7c2.1,0.2,4.9,0.5,8.5,0.6  c3.1,2.2,6.7,3.3,10.5,3.3c3.9,0,7.5-1.2,10.7-3.5c2.7-0.1,5.5-0.4,8.3-0.6L68.6,82z M71.6,70.3c-3.8,0.4-7.6,0.7-11.4,0.9  c-0.2,0-0.4,0.1-0.5,0.2c-2.8,2.1-6.2,3.2-9.7,3.2c-3.4,0-6.7-1.1-9.5-3.1c-0.2-0.1-0.3-0.2-0.5-0.2c-6-0.3-10-0.7-11.6-1l-0.9-24.2  c1.9-0.2,6.4-0.5,12.4-0.7c0.2,0,0.4-0.1,0.6-0.2c2.8-2,6.1-3.1,9.6-3.1c3.4,0,6.7,1.1,9.5,3.1c0.2,0.1,0.4,0.2,0.6,0.2  c4.3,0.1,8.5,0.4,12.4,0.8L71.6,70.3z M69.9,43.9c-3.1-0.2-6.2-0.4-9.5-0.5c-3.1-2.2-6.7-3.3-10.4-3.3c-3.8,0-7.4,1.2-10.5,3.3  c-3.9,0.1-7.1,0.3-9.4,0.5l-0.4-11.4c7.9-0.7,24.2-1.7,40.6-0.1L69.9,43.9z M30.6,14.1c4-1,20.7-3.8,38.9,0l1.4,7.2  c-19-2.3-34.5-0.7-41.7,0.3L30.6,14.1z M26,24.2c3.9-0.7,22.2-3.7,45.8-0.8c0.1,0,0.2,0.1,0.4,0.1c0,0,0.1,0,0.1,0  c0.6,0.1,1.2,0.2,1.9,0.2l0.3,7.2c-21.4-2.6-43.4-0.6-48.7,0L26,24.2z"/><path fill="#003755" d="M50,52.1c-0.5,0.6-0.9,1.3-1.1,2.1c-4.3-1.6-9.6-1.7-9.9-1.8c-0.5-0.1-0.9,0.4-0.9,0.9c0,0.4-0.2,10.2,3.4,14  c2.4,2.5,6.1,3,9,3c2.1,0,3.6-0.3,3.8-0.3c0,0,0.1,0,0.1,0c0,0,0.1,0,0.1,0c0.1,0,0.2-0.1,0.3-0.2c0,0,0,0,0,0c0,0,0,0,0,0  c0.1-0.1,0.1-0.1,0.2-0.2c0,0,0-0.1,0-0.1c0,0,0,0,0-0.1c0.1-0.2,1-3.7,0.4-7.3c1.7-0.5,3-1.3,3.9-2.4c2.5-3,1.9-10.3,1.9-10.6  c0-0.2-0.1-0.5-0.3-0.6c-0.2-0.2-0.4-0.2-0.7-0.2C59.7,48.3,52.5,49.1,50,52.1z M51.3,53.3c1.2-1.4,4.1-2.3,6.4-2.8l-5.3,5.8  c-0.5-0.5-1.2-0.9-1.9-1.3C50.7,54.3,51,53.7,51.3,53.3z M41.1,54.4c3.3,0.3,8.3,1.2,10.3,3.4c2.6,2.7,2.3,7.1,2,9.5L41.1,54.4z   M42.7,66.1c-2.1-2.2-2.7-7.4-2.9-10.4L52,68.5C49.5,68.7,45.1,68.6,42.7,66.1z M57.8,58.6c-0.7,0.8-1.7,1.4-2.9,1.8  c-0.3-0.9-0.7-1.9-1.3-2.7l5.7-6.2C59.3,53.8,59,57.1,57.8,58.6z"/></svg>