<svg xmlns="http://www.w3.org/2000/svg" xmlns:xlink="http://www.w3.org/1999/xlink" version="1.1" x="0px" y="0px" viewBox="0 0 100 100" style="enable-background:new 0 0 100 100;" xml:space="preserve"><path fill="#003755" d="M10.5898438,78.0888672l11.125,5c0.026062,0.0117188,0.0536499,0.0079346,0.0800781,0.0172729v5.9041138  c0,0.5522461,0.4477539,1,1,1h54.4101562c0.5522461,0,1-0.4477539,1-1v-5.9041138  c0.0264282-0.0092773,0.0540161-0.0056152,0.0800781-0.0172729l11.125-5C89.769043,77.9272461,90,77.5703125,90,77.1767578  V29.8432617c0-7.4233398-18.6263428-13.1311035-22.7420654-14.3014526l0.0174561-0.0300903  c0.2382812-0.4111328,0.1542969-0.9331055-0.2006836-1.2490234l-4.4926758-3.9926758  c-0.0175781-0.0161133-0.0366211-0.0317383-0.0556641-0.046875h-0.0004883  c-0.0004883-0.0004883-0.0009766-0.0014648-0.0019531-0.0019531c0,0.0004883-0.0004883,0-0.0019531-0.0014648  c-0.0009766-0.0009766-0.0009766-0.0019531-0.0019531-0.0014648l-0.0004883-0.0004883c0,0-0.0004883,0-0.0004883-0.0004883  c-0.0004883,0.0004883,0-0.0014648-0.0024414-0.0014648c-0.0009766-0.0014648-0.0019531-0.0019531-0.0019531-0.0014648  c-0.1831055-0.1391602-0.3735352-0.2158203-0.6137695-0.2036133H37.8491211  c-0.2231445-0.0043945-0.4301758,0.0644531-0.6137695,0.2036133c0,0,0,0-0.0004883,0  c-0.0014648,0.0009766-0.0019531,0.0009766-0.0019531,0.0019531c-0.0039062,0.0024414-0.0024414,0.0009766-0.0024414,0.0014648  l-0.0004883,0.0004883c-0.0009766,0-0.0009766,0-0.0019531,0.0014648c-0.0014648,0.0009766-0.0014648,0.0019531-0.0019531,0.0014648  c-0.0009766,0.0004883-0.0014648,0.0014648-0.0019531,0.0019531h-0.0004883  c-0.019043,0.0151367-0.0380859,0.0307617-0.0556641,0.046875l-4.4926758,3.9926758  c-0.3549805,0.315918-0.4389648,0.8378906-0.2006836,1.2490234l0.0531006,0.0916138  C28.0231323,16.8991089,10,22.5405884,10,29.8432617v47.3334961C10,77.5703125,10.230957,77.9272461,10.5898438,78.0888672z   M88,29.8432617v46.6865234l-9.7949219,4.4021606v-37.755188c0-0.5522461-0.4477539-1-1-1s-1,0.4477539-1,1v44.8334961H50.875  V28.1765747l4.434082,5.3078003c0.190918,0.2285156,0.4726562,0.3588867,0.7675781,0.3588867  c0.0283203,0,0.0566406-0.0009766,0.0854492-0.003418c0.3251953-0.027832,0.6162109-0.2128906,0.7797852-0.4951172  l9.2802734-16.0154419C74.6754761,19.6489868,88,25.074585,88,29.8432617z M62.0483398,12.4711914l3.0874023,2.7441406  l-9.2080078,15.8901367l-4.277832-5.1210938L62.0483398,12.4711914z M59.8789062,12.0107422L49.875,25.0112305  L39.8710938,12.0107422H59.8789062z M37.7016602,12.4711914L48.1000977,25.984375l-4.277832,5.1210938L34.6142578,15.215332  L37.7016602,12.4711914z M12,29.8432617c0-4.7287598,13.1005859-10.1022339,21.5626831-12.4537964l9.2454224,15.9552612  c0.1635742,0.2822266,0.4545898,0.4672852,0.7797852,0.4951172c0.3251953,0.0288086,0.6435547-0.1049805,0.8530273-0.3554688  L48.875,28.1765747v59.8336792H23.7949219V43.1767578c0-0.5522461-0.4477539-1-1-1s-1,0.4477539-1,1v37.755188L12,76.5297852  V29.8432617z"/><path fill="#003755" d="M33.2421875,61.9008789h6.265625c2.5703125,0,4.6611328-2.0913086,4.6611328-4.6616211v-14.0625  c0-0.5522461-0.4477539-1-1-1H29.5810547c-0.5522461,0-1,0.4477539-1,1v14.0625  C28.5810547,59.8095703,30.671875,61.9008789,33.2421875,61.9008789z M39.5078125,59.9008789h-6.265625  c-1.4672852,0-2.6611328-1.1938477-2.6611328-2.6616211v-7.0141602h11.5878906v7.0141602  C42.1689453,58.7070312,40.9750977,59.9008789,39.5078125,59.9008789z M42.1689453,44.1767578v4.0483398H30.5810547v-4.0483398  H42.1689453z"/></svg>