<svg xmlns="http://www.w3.org/2000/svg" xmlns:xlink="http://www.w3.org/1999/xlink" version="1.1" x="0px" y="0px" viewBox="0 0 100 100" style="enable-background:new 0 0 100 100;" xml:space="preserve"><path fill="#003755" d="M84.7255859,36.9570923c0.0046997-0.0045166,0.0109863-0.0057373,0.015625-0.0103149l4.9189453-4.890625  c0.1884766-0.1875,0.2949219-0.4428711,0.2949219-0.7089844s-0.1064453-0.5214844-0.2949219-0.7089844L69.2998047,10.3945312  c-0.390625-0.3876953-1.0195312-0.3876953-1.4101562,0l-4.9189453,4.890625  c-0.0040283,0.0039673-0.005127,0.0095215-0.0090332,0.0135498c-0.0044556,0.0045776-0.0109863,0.0062256-0.0153809,0.0108643  L46.104126,33.2556152L27.0625,11.2539062c-1.1992188-1.3994141-3.3203125-1.5678711-4.7304688-0.3769531l-1.7236328,1.4604492  c-0.6845703,0.5800781-1.1005859,1.390625-1.171875,2.2827148c-0.0402832,0.50354,0.0438232,0.9946289,0.2202148,1.4536743  l-9.1313477,7.7333374c-0.203125,0.171875-0.3291016,0.4179688-0.3505859,0.6835938  c-0.0205078,0.2651367,0.0644531,0.527832,0.2373047,0.7299805L24.3154297,41.449707  c0.1982422,0.230957,0.4785156,0.3496094,0.7597656,0.3496094c0.2285156,0,0.4580078-0.0776367,0.6464844-0.2368164  l9.0698242-7.6817627l5.1460571,5.9456177l-20.006897,21.3181763c-1.9199219,2.0463867-1.8652344,5.1987305,0.125,7.1767578  l0.369812,0.3677368L10.2470703,80.3466797c-0.3466797,0.3969727-0.3261719,0.9951172,0.0478516,1.3666992l7.6523438,7.6083984  c0.1943359,0.1933594,0.4492188,0.2910156,0.7050781,0.2910156c0.2324219,0,0.4648438-0.0805664,0.6533203-0.2431641  l11.7331543-10.1279297l0.3771973,0.375c1.015625,1.0102539,2.3388672,1.5180664,3.6650391,1.5180664  c1.2666016,0,2.5341797-0.4633789,3.5371094-1.394043L58.5100708,61.284729l23.4938354,27.1454468  c0.8867188,1.0351562,2.1494141,1.5668945,3.4199219,1.5668945c1.0292969,0,2.0634766-0.3491211,2.90625-1.0625  c0.9140625-0.7744141,1.4707031-1.8574219,1.5664062-3.0493164c0.0957031-1.190918-0.28125-2.3476562-1.0634766-3.2602539  L65.0844116,55.1849976l19.6314087-18.2142944C84.7200317,36.9668579,84.7214966,36.9609985,84.7255859,36.9570923z   M68.5947266,12.5136719L87.5371094,31.347168l-3.5009766,3.4806519L65.0939331,15.9941406L68.5947266,12.5136719z   M20.8057861,17.7220459l1.5638428,1.8068237l-8.2288208,6.9697266l-1.5548706-1.8150024L20.8057861,17.7220459z   M20.8668213,34.3499756l8.2692261-7.003418l1.4190063,1.6395264l-8.2775879,7.0105591L20.8668213,34.3499756z   M19.5653687,32.8308105l-1.4110718-1.6471558l8.2530518-6.9897461l1.4194946,1.6400146L19.5653687,32.8308105z   M16.8529053,29.6644287l-1.4107056-1.6466675l8.2366333-6.9762573l1.4193115,1.6397705L16.8529053,29.6644287z M25.1875,39.3935547  l-1.6085815-1.8776855l8.2853394-7.0171509l1.618042,1.8694458L25.1875,39.3935547z M21.7480469,15.7548828  c-0.2333984-0.2724609-0.3466797-0.6191406-0.3183594-0.9755859c0.0292969-0.3574219,0.1962891-0.6826172,0.4716797-0.9155273  l1.7226562-1.4599609c0.5712891-0.4833984,1.4326172-0.4165039,1.9228516,0.1552734l19.1815796,22.1623535l-3.4152832,3.6390991  L21.7480469,15.7548828z M29.6162109,77.8276367l-10.9160156,9.4228516l-6.3300781-6.2944336l9.4765625-10.8540039  l0.2578735,0.2564087L29.6162109,77.8276367z M87.3173828,83.9296875c0.4306641,0.5019531,0.6376953,1.1396484,0.5849609,1.7958984  c-0.0517578,0.6572266-0.359375,1.2548828-0.8652344,1.6826172c-1.0449219,0.8852539-2.6230469,0.7617188-3.5175781-0.2827148  L59.9766846,59.9240112l3.6411133-3.3782349L87.3173828,83.9296875z M37.2587891,78.2749023  c-1.2636719,1.1728516-3.2099609,1.1401367-4.4326172-0.0761719l-1.0341797-1.0283203l0,0l-0.1484375-0.147583L21.4658203,66.902832  c-1.2177734-1.2099609-1.2509766-3.1381836-0.0761719-4.3896484l42.3105469-45.0839844l18.8925781,18.7836914L37.2587891,78.2749023  z"/></svg>