<svg xmlns="http://www.w3.org/2000/svg" xmlns:xlink="http://www.w3.org/1999/xlink" version="1.1" x="0px" y="0px" viewBox="0 0 100 100" style="enable-background:new 0 0 100 100;" xml:space="preserve"><path fill="#003755" d="M78.011,26.794L80.338,12h7.935c0.552,0,1-0.447,1-1s-0.448-1-1-1h-8.79c-0.492,0-0.911,0.358-0.988,0.845l-2.328,14.801  h-64.19c-0.29,0-0.565,0.125-0.755,0.344s-0.276,0.509-0.235,0.795l5.273,37.548c0.069,0.494,0.492,0.861,0.99,0.861h53.331  l-1.104,7.141H17.597c-0.552,0-1,0.447-1,1s0.448,1,1,1h52.739c0.493,0,0.913-0.359,0.988-0.848l1.413-9.141  c0-0.002-0.001-0.004,0-0.007c0-0.002,0.002-0.004,0.002-0.007L78.011,26.794z M13.128,27.646h62.744l-4.993,35.548H18.12  L13.128,27.646z"/><path fill="#003755" d="M55.981,83.727c0,3.459,2.814,6.273,6.274,6.273s6.274-2.814,6.274-6.273c0-3.46-2.814-6.274-6.274-6.274  S55.981,80.267,55.981,83.727z M66.529,83.727c0,2.356-1.917,4.273-4.274,4.273s-4.274-1.917-4.274-4.273s1.917-4.274,4.274-4.274  S66.529,81.37,66.529,83.727z"/><path fill="#003755" d="M20.635,83.727c0,3.459,2.814,6.273,6.274,6.273c3.459,0,6.273-2.814,6.273-6.273c0-3.46-2.814-6.274-6.273-6.274  C23.449,77.452,20.635,80.267,20.635,83.727z M31.182,83.727c0,2.356-1.917,4.273-4.273,4.273s-4.274-1.917-4.274-4.273  s1.917-4.274,4.274-4.274S31.182,81.37,31.182,83.727z"/><path fill="#003755" d="M59.116,31.162c-0.204-0.169-0.465-0.249-0.734-0.226c-0.391,0.037-9.602,0.953-12.785,4.786  c-0.648,0.779-1.139,1.72-1.478,2.795c-5.427-2.069-12.399-2.27-12.79-2.28c-0.541,0.013-1.01,0.424-1.024,0.976  c-0.013,0.527-0.264,12.97,4.298,17.76c2.994,3.145,7.757,3.827,11.332,3.827c2.61-0.001,4.587-0.365,4.774-0.4  c0.041-0.008,0.078-0.027,0.117-0.04c0.031-0.01,0.062-0.018,0.092-0.032c0.106-0.046,0.203-0.105,0.286-0.183  c0.002-0.002,0.005-0.003,0.007-0.005c0.008-0.008,0.011-0.018,0.018-0.026c0.073-0.075,0.132-0.162,0.179-0.257  c0.015-0.031,0.029-0.06,0.041-0.092c0.01-0.027,0.026-0.05,0.034-0.078c0.078-0.28,1.278-4.721,0.549-9.372  c2.155-0.579,3.877-1.581,5.079-3.027c3.184-3.833,2.396-13.055,2.361-13.446C59.449,31.577,59.321,31.333,59.116,31.162z   M47.135,37c1.614-1.943,5.686-3.098,8.709-3.669l-7.237,7.826c-0.732-0.703-1.634-1.306-2.643-1.823  C46.227,38.416,46.614,37.627,47.135,37z M49.93,55.348l-16.171-16.95c3.761,0.338,10.777,1.361,13.651,4.379  C50.862,46.403,50.422,52.376,49.93,55.348z M36.051,53.594c-2.853-2.996-3.542-9.985-3.703-13.776L48.43,56.674  C45.349,56.948,39.282,56.988,36.051,53.594z M55.574,44.011c-0.914,1.099-2.258,1.876-3.959,2.35  c-0.367-1.274-0.922-2.518-1.712-3.659l7.681-8.306C57.609,37.493,57.258,41.982,55.574,44.011z"/></svg>